<svg width="81" height="17" viewBox="0 0 81 17" fill="none" xmlns="http://www.w3.org/2000/svg">
<path fill-rule="evenodd" clip-rule="evenodd" d="M8.1706 2.76425V0.2627H6.10191C6.10191 0.2627 4.67981 0.173421 3.6024 1.20076C2.52499 2.22826 2.78354 3.47896 2.78354 3.47896V5.75732H0.714844V8.43775H2.69741V16.0763H5.62788V8.47242H7.86899L8.1706 5.75732H5.62788V3.79176C5.62788 2.58554 6.83464 2.76425 6.83464 2.76425H8.1706ZM13.1811 13.9992C14.2292 13.9992 15.0789 13.0251 15.0789 11.9888V10.0234C15.0789 8.98724 14.2292 8.01324 13.1811 8.01324C12.1329 8.01324 11.2832 8.98724 11.2832 10.0234V11.9888C11.2832 13.0251 12.1329 13.9992 13.1811 13.9992ZM15.2367 7.16509V5.802H18.0613V16.0764H15.2385L15.2579 14.7511C14.5087 15.7881 13.4543 16.4336 12.2864 16.4336C10.0133 16.4336 8.17067 14.3342 8.17067 10.9726C8.17067 7.58885 10.0133 5.51153 12.2864 5.51153C13.4434 5.51153 14.489 6.14519 15.2367 7.16509ZM41.2776 9.95648C41.2776 8.92028 42.1273 7.94612 43.1754 7.94612C44.2236 7.94612 45.0733 8.92028 45.0733 9.95648V11.9219C45.0733 12.9581 44.2236 13.9321 43.1754 13.9321C42.1273 13.9321 41.2776 12.9581 41.2776 11.9219V9.95648ZM41.1198 16.1433V14.7802C41.8675 15.8001 42.9132 16.4338 44.0702 16.4338C46.3432 16.4338 48.1859 14.3565 48.1859 10.9726C48.1859 7.61117 46.3432 5.51152 44.0702 5.51152C42.9022 5.51152 41.8478 6.15721 41.0986 7.19405L41.118 0.408689L38.1825 0.751084V16.0965L41.1198 16.1433ZM22.1769 11.0383C22.1769 14.076 24.4396 13.9419 24.4396 13.9419C25.9695 13.9642 26.5083 13.4059 26.5083 13.4059L27.2193 15.6171C25.991 16.5552 22.2848 16.7114 20.6255 15.1256C19.1898 13.7535 19.1901 11.5298 19.2162 10.9552C19.1901 10.3805 19.1898 8.15696 20.6255 6.78469C22.2848 5.19887 25.991 5.35527 27.2193 6.29333L26.5083 8.50457C26.5083 8.50457 25.9695 7.94611 24.4396 7.96858C24.4396 7.96858 22.1769 7.83451 22.1769 10.8722V11.0383ZM30.6024 9.97872C30.6024 9.97872 30.4515 7.70052 32.4341 7.70052C34.4165 7.70052 34.2656 9.97872 34.2656 9.97872H30.6024ZM36.9592 12.0559C36.9592 12.0559 38.1443 5.6232 32.4771 5.58838C26.8098 5.55339 27.6287 11.4081 27.6287 11.4081C27.7581 14.9595 29.331 15.987 32.0246 16.322C34.7181 16.6571 36.7653 15.5849 36.7653 15.5849L36.1403 13.5078C36.1403 13.5078 33.964 14.2002 32.2401 14.0438C30.5163 13.8875 30.6455 12.0559 30.6455 12.0559H36.9592ZM54.0002 13.9449C55.0758 13.9449 55.9477 12.9707 55.9477 11.9345V9.96911C55.9477 8.93291 55.0758 7.95891 54.0002 7.95891C52.9248 7.95891 52.0528 8.93291 52.0528 9.96911V11.9345C52.0528 12.9707 52.9248 13.9449 54.0002 13.9449ZM49.0947 11.0427C49.0947 7.95891 50.3363 5.65174 54.0254 5.65174C57.5475 5.65174 58.9563 8.06544 58.9563 11.0427C58.9563 14.5372 56.7487 16.4338 54.0254 16.4338C50.6945 16.4338 49.0947 14.3143 49.0947 11.0427ZM66.8361 11.9345C66.8361 12.9707 65.9642 13.9449 64.8886 13.9449C63.8132 13.9449 62.9412 12.9707 62.9412 11.9345V9.96911C62.9412 8.93291 63.8132 7.95891 64.8886 7.95891C65.9642 7.95891 66.8361 8.93291 66.8361 9.96911V11.9345ZM64.9138 5.65174C61.2246 5.65174 59.9831 7.95891 59.9831 11.0427C59.9831 14.3143 61.5829 16.4338 64.9138 16.4338C67.637 16.4338 69.8447 14.5372 69.8447 11.0427C69.8447 8.06544 68.4359 5.65174 64.9138 5.65174ZM76.9603 10.9484L80.1838 16.1212H77.1274L73.88 10.8588V16.1212H70.9192V0.676859L73.88 0.355201V10.4061L76.8887 5.77542H80.0406L76.9603 10.9484Z" fill="#969696"/>
</svg>
