<svg width="235" height="234" viewBox="0 0 235 234" fill="none" xmlns="http://www.w3.org/2000/svg">
<rect x="7.5" y="7.5" width="219.005" height="218.998" rx="109.499" fill="#131118"/>
<path fill-rule="evenodd" clip-rule="evenodd" d="M121.881 36.4336L124.515 46.8943L125.594 47.0133L130.63 37.4137L130.692 37.4205C130.651 37.6412 130.604 37.9033 130.553 38.2068C130.502 38.5051 130.452 38.8244 130.401 39.1647C130.351 39.4998 130.307 39.8355 130.267 40.1717L129.415 47.4343L130.719 47.5781L132.051 36.2341L130.11 36.0202L125.352 45.0531L125.298 45.0472L122.81 35.2157L120.853 35L119.522 46.344L120.749 46.4792L121.59 39.3097C121.634 38.9372 121.671 38.572 121.703 38.2139C121.735 37.8507 121.761 37.5156 121.782 37.2087C121.802 36.9018 121.814 36.6412 121.818 36.4268L121.881 36.4336ZM98.779 39.7805C99.7702 39.5591 100.578 39.6349 101.202 40.0078C101.825 40.3757 102.263 41.0942 102.517 42.1633L103.808 47.5901L102.558 47.8693L101.287 42.5262C101.122 41.832 100.838 41.3484 100.436 41.0753C100.039 40.8012 99.5124 40.7373 98.8567 40.8837C97.9315 41.0903 97.343 41.4965 97.0909 42.1024C96.8389 42.7083 96.831 43.5079 97.0672 44.501L98.1047 48.8637L96.839 49.1463L94.8579 40.8162L95.8796 40.588L96.3558 41.7463L96.4244 41.731C96.5325 41.3974 96.7002 41.1011 96.9277 40.8422C97.154 40.5782 97.4254 40.3576 97.7418 40.1802C98.0571 39.9977 98.4028 39.8645 98.779 39.7805ZM87.2116 43.2032C87.0297 43.255 86.8592 43.3135 86.7001 43.3785C86.324 43.5321 86.0129 43.7437 85.7667 44.013C85.5253 44.2804 85.3418 44.5832 85.2164 44.9213C85.0889 45.2546 85.0066 45.6005 84.9694 45.9588L84.9188 45.9794L84.1589 44.5856L83.1609 44.9934L86.5776 52.8447L87.7854 52.3512L85.9523 48.139C85.7756 47.7331 85.6759 47.3407 85.653 46.9619C85.6281 46.5784 85.6707 46.2262 85.781 45.9056C85.8893 45.5801 86.0562 45.2981 86.2818 45.0597C86.5101 44.8145 86.7834 44.6269 87.1016 44.4969C87.2414 44.4398 87.395 44.3882 87.5625 44.3423C87.7299 44.2964 87.886 44.2636 88.0307 44.2438L87.7025 43.0786C87.555 43.1051 87.3914 43.1466 87.2116 43.2032ZM72.8711 50.2505C73.7403 49.7151 74.5112 49.5093 75.1839 49.633C75.8566 49.7567 76.4686 50.2389 77.02 51.0793L80.2125 55.9459L79.4077 56.4417L78.5006 55.5146L78.4474 55.5474C78.4148 55.9343 78.3462 56.2854 78.2416 56.6005C78.1342 56.9113 77.9641 57.2025 77.7314 57.4743C77.5003 57.7389 77.1741 58.001 76.7528 58.2605C76.3094 58.5336 75.8647 58.7005 75.4188 58.7612C74.9774 58.8191 74.5554 58.7549 74.1531 58.5686C73.7551 58.3796 73.4004 58.0478 73.089 57.5731C72.6205 56.8589 72.5488 56.1326 72.8739 55.3943C73.199 54.6559 73.9399 53.9061 75.0966 53.1446L76.3195 52.318L76.0324 51.8803C75.6267 51.2619 75.2072 50.9119 74.7739 50.8303C74.3405 50.7487 73.8777 50.8595 73.3855 51.1627C73.0041 51.3976 72.6762 51.676 72.4017 51.998C72.1272 52.3199 71.8834 52.6505 71.6701 52.9898L70.7909 52.3757C71.0105 52.0081 71.2946 51.6343 71.6432 51.2545C71.9917 50.8747 72.4011 50.54 72.8711 50.2505ZM76.8076 53.0904L75.7267 53.8204C74.8405 54.4152 74.2954 54.9558 74.0915 55.4422C73.8875 55.9286 73.9398 56.407 74.2484 56.8773C74.5169 57.2867 74.8418 57.5115 75.2232 57.5518C75.6045 57.592 76.0036 57.4838 76.4204 57.227C77.0679 56.8282 77.4821 56.3254 77.6631 55.7186C77.8441 55.1118 77.7032 54.4557 77.2404 53.7502L76.8076 53.0904ZM62.812 58.1325C62.2016 58.2485 61.6256 58.5507 61.0842 59.0391C60.5157 59.5519 60.1469 60.1298 59.9779 60.773C59.8128 61.4127 59.8488 62.0813 60.0858 62.7789C60.323 63.4693 60.761 64.1469 61.3996 64.8117C62.0527 65.4915 62.7304 65.9528 63.4328 66.1956C64.1352 66.4383 64.83 66.4777 65.517 66.3137C66.2043 66.1425 66.8534 65.7813 67.4645 65.2301C67.8938 64.8429 68.2344 64.4761 68.4863 64.1296C68.7421 63.7797 68.9638 63.3905 69.1513 62.962L68.3611 62.1394C68.162 62.5784 67.942 62.9731 67.7012 63.3236C67.4603 63.674 67.1388 64.0306 66.7366 64.3934C66.083 64.983 65.3941 65.2503 64.67 65.1953C63.9459 65.1404 63.2299 64.7557 62.5219 64.0412L66.9135 60.0801L66.356 59.4998C65.8184 58.9401 65.2468 58.5443 64.6414 58.3123C64.0323 58.0765 63.4225 58.0166 62.812 58.1325ZM61.0496 61.4153C61.0413 60.8129 61.2943 60.2797 61.8086 59.8158C62.1722 59.4878 62.5458 59.2981 62.9294 59.2466C63.3093 59.1913 63.6907 59.2539 64.0735 59.4344C64.4565 59.6077 64.8268 59.8767 65.1842 60.2413L61.8195 63.2762C61.3146 62.6379 61.058 62.0176 61.0496 61.4153ZM56.7487 76.7593L47.5074 70.0468L48.3201 68.9963L56.6006 75.011L59.7029 71.0005L60.6637 71.6984L56.7487 76.7593ZM43.4277 91.373L44.5086 91.7836L45.9618 88.1914L44.8809 87.7808L43.4277 91.373ZM35.3333 109.268C35.4074 108.543 35.6315 107.937 36.0059 107.449C36.3802 106.962 36.8717 106.609 37.4804 106.39C38.0839 106.17 38.7719 106.098 39.5444 106.172L40.3454 106.248L39.745 112.132C40.7472 112.212 41.5347 112.037 42.1076 111.605C42.6804 111.173 43.0115 110.52 43.1008 109.644C43.1558 109.105 43.1552 108.624 43.099 108.2C43.0428 107.776 42.9415 107.332 42.7952 106.868L43.9306 106.977C44.0785 107.425 44.1749 107.866 44.2197 108.299C44.265 108.727 44.2583 109.229 44.1996 109.804C44.116 110.623 43.8772 111.322 43.483 111.901C43.0841 112.475 42.5434 112.9 41.861 113.174C41.1786 113.449 40.3681 113.542 39.4297 113.452C38.512 113.364 37.7344 113.135 37.0968 112.765C36.4545 112.39 35.9805 111.905 35.6747 111.31C35.3694 110.711 35.2556 110.03 35.3333 109.268ZM36.3894 109.385C36.3191 110.074 36.4886 110.645 36.8978 111.098C37.3071 111.55 37.9122 111.854 38.7131 112.009L39.1731 107.502C38.6645 107.458 38.2104 107.496 37.8109 107.614C37.4067 107.727 37.0825 107.929 36.8382 108.22C36.5887 108.51 36.4391 108.898 36.3894 109.385ZM35.0043 120.236C34.9968 120.424 34.9991 120.604 35.0113 120.776C35.04 121.181 35.1441 121.544 35.3236 121.867C35.5027 122.183 35.7336 122.458 36.0164 122.69C36.2939 122.922 36.5974 123.115 36.9269 123.271L36.9308 123.325L35.3661 123.571L35.4424 124.646L43.986 124.077L43.8937 122.776L39.3101 123.081C38.8683 123.11 38.4636 123.072 38.0958 122.966C37.7228 122.86 37.4009 122.702 37.13 122.49C36.854 122.279 36.6377 122.027 36.4812 121.735C36.3192 121.437 36.226 121.117 36.2017 120.775C36.191 120.624 36.19 120.462 36.1986 120.289C36.2072 120.116 36.2247 119.959 36.2512 119.816L35.0391 119.732C35.0182 119.88 35.0066 120.048 35.0043 120.236ZM40.7307 131.478C41.4147 131.315 42.0476 131.258 42.6295 131.306C43.2114 131.355 43.7295 131.502 44.184 131.747C44.6384 131.992 45.0246 132.328 45.3427 132.756C45.6544 133.179 45.8858 133.689 46.037 134.285C46.178 134.84 46.2111 135.373 46.1365 135.883C46.0555 136.39 45.873 136.856 45.589 137.282C45.3038 137.704 44.9163 138.072 44.4267 138.387C43.9358 138.696 43.3483 138.933 42.6644 139.096C41.7524 139.313 40.9382 139.344 40.2216 139.188C39.5 139.033 38.8996 138.711 38.4204 138.22C37.9349 137.725 37.5916 137.082 37.3904 136.289C37.1982 135.532 37.2 134.83 37.396 134.184C37.5906 133.533 37.9699 132.974 38.5339 132.507C39.0916 132.037 39.8238 131.694 40.7307 131.478ZM42.3338 137.793C43.0025 137.634 43.5602 137.407 44.0068 137.113C44.4534 136.82 44.7642 136.456 44.9392 136.024C45.1141 135.591 45.1279 135.085 44.9806 134.504C44.8345 133.929 44.5804 133.489 44.2184 133.184C43.855 132.875 43.4052 132.69 42.8689 132.631C42.3326 132.571 41.7301 132.621 41.0613 132.78C40.3976 132.938 39.8475 133.163 39.4111 133.455C38.9695 133.747 38.6638 134.109 38.4939 134.541C38.324 134.972 38.3134 135.48 38.462 136.066C38.6811 136.929 39.1282 137.495 39.8032 137.762C40.477 138.024 41.3205 138.035 42.3338 137.793ZM44.3334 156.96L51.6829 149.153L51.1863 148.187L40.321 149.123L40.2924 149.067C40.5012 148.984 40.7476 148.882 41.0315 148.762C41.3106 148.645 41.6074 148.516 41.9217 148.376C42.2313 148.238 42.5386 148.095 42.8434 147.948L49.4285 144.769L48.8283 143.601L38.5426 148.568L39.4358 150.305L49.67 149.439L49.695 149.488L42.7942 156.836L43.6945 158.586L53.9802 153.62L53.4157 152.522L46.915 155.661C46.5773 155.824 46.2491 155.988 45.9302 156.154C45.6066 156.322 45.3101 156.479 45.0405 156.627C44.7709 156.774 44.5448 156.904 44.362 157.015L44.3334 156.96ZM59.8567 173.935C59.1157 173.24 58.7318 172.538 58.7051 171.828C58.6746 171.121 59.0476 170.379 59.824 169.602L63.7648 165.654L64.6996 166.53L60.8195 170.417C60.3154 170.922 60.0579 171.412 60.0471 171.887C60.0325 172.358 60.2703 172.824 60.7605 173.283C61.4521 173.932 62.128 174.198 62.7882 174.082C63.4484 173.966 64.1391 173.546 64.8603 172.824L68.0285 169.65L68.9747 170.537L62.9254 176.597L62.1616 175.881L62.8912 174.874L62.8399 174.826C62.4935 174.915 62.1459 174.935 61.7972 174.887C61.4448 174.842 61.1045 174.737 60.7763 174.572C60.4445 174.411 60.1379 174.198 59.8567 173.935ZM69.2011 181.461C69.3458 181.581 69.49 181.689 69.6336 181.783C69.973 182.006 70.3268 182.145 70.695 182.201C71.0587 182.253 71.4213 182.239 71.7825 182.159C72.1408 182.083 72.485 181.963 72.8152 181.8L72.8609 181.83L72.0732 183.2L72.974 183.793L77.8856 176.779L76.7955 176.062L74.1604 179.825C73.9065 180.188 73.622 180.48 73.3071 180.703C72.9892 180.93 72.6613 181.085 72.3234 181.169C71.9825 181.256 71.6471 181.272 71.317 181.217C70.9796 181.163 70.6672 181.042 70.38 180.853C70.2538 180.77 70.1249 180.673 69.9932 180.562C69.8616 180.45 69.7474 180.341 69.6509 180.234L68.8236 181.129C68.9276 181.235 69.0534 181.346 69.2011 181.461ZM83.1851 189.244C82.2518 188.83 81.6569 188.316 81.4002 187.701C81.1435 187.086 81.2297 186.324 81.6588 185.415L84.1435 180.152L85.0077 180.535L84.696 181.781L84.7531 181.806C85.1056 181.621 85.4464 181.484 85.7756 181.396C86.1026 181.314 86.4466 181.292 86.8076 181.333C87.1615 181.376 87.5647 181.497 88.017 181.698C88.4932 181.909 88.8781 182.179 89.1716 182.509C89.4605 182.836 89.6331 183.214 89.6895 183.644C89.7411 184.071 89.6458 184.541 89.4034 185.055C89.0388 185.827 88.4491 186.284 87.6345 186.424C86.8198 186.564 85.7703 186.372 84.4859 185.848L83.1094 185.306L82.8859 185.78C82.5702 186.448 82.4942 186.981 82.6579 187.379C82.8216 187.776 83.1677 188.092 83.6963 188.326C84.1058 188.507 84.524 188.622 84.951 188.668C85.378 188.715 85.7959 188.733 86.2048 188.72L86.1488 189.772C85.712 189.795 85.235 189.768 84.7179 189.693C84.2007 189.617 83.6898 189.468 83.1851 189.244ZM83.5139 184.486L84.73 184.965C85.7239 185.36 86.4864 185.507 87.0175 185.407C87.5487 185.306 87.9343 185.002 88.1745 184.493C88.3835 184.05 88.4023 183.663 88.2309 183.331C88.0596 182.998 87.7501 182.733 87.3025 182.535C86.6074 182.226 85.9483 182.165 85.3254 182.35C84.7025 182.535 84.2109 183.009 83.8507 183.772L83.5139 184.486ZM95.5634 193.06C95.9887 193.496 96.5555 193.8 97.2641 193.972C98.0081 194.153 98.7016 194.134 99.3445 193.915C99.9825 193.695 100.538 193.294 101.011 192.712C101.478 192.134 101.827 191.399 102.058 190.506C102.294 189.594 102.329 188.782 102.164 188.072C101.998 187.362 101.661 186.771 101.154 186.299C100.64 185.832 99.9833 185.501 99.1837 185.306C98.6219 185.17 98.1249 185.095 97.6928 185.081C97.2556 185.066 96.8028 185.1 96.3345 185.185L96.0488 186.289C96.5323 186.208 96.9889 186.169 97.4186 186.172C97.8483 186.174 98.3263 186.24 98.8526 186.367C99.7079 186.575 100.305 186.991 100.644 187.615C100.983 188.238 101.034 189.038 100.797 190.015L95.0505 188.619L94.8489 189.398C94.6545 190.149 94.619 190.837 94.7425 191.462C94.8646 192.092 95.1382 192.625 95.5634 193.06ZM99.3251 192.68C98.8118 193.022 98.2186 193.111 97.5454 192.947C97.0697 192.832 96.7074 192.631 96.4585 192.345C96.2084 192.065 96.0588 191.718 96.0099 191.304C95.9546 190.894 95.9884 190.441 96.1112 189.946L100.514 191.016C100.235 191.784 99.8385 192.339 99.3251 192.68ZM114.14 198.998L114.937 187.604L108.553 187.184L108.47 188.369L113.529 188.701L112.815 198.911L114.14 198.998ZM145.659 47.4493C145.422 48.1111 145.124 48.6728 144.765 49.1344C144.406 49.5959 143.999 49.9508 143.545 50.199C143.091 50.4473 142.597 50.5889 142.065 50.6239C141.539 50.6557 140.985 50.5735 140.402 50.3775C139.859 50.1947 139.394 49.9337 139.007 49.5945C138.626 49.2521 138.335 48.8463 138.132 48.377C137.935 47.9095 137.838 47.3851 137.842 46.8039C137.85 46.2244 137.973 45.6037 138.211 44.9418C138.527 44.0593 138.946 43.3599 139.469 42.8435C139.993 42.3222 140.592 41.9936 141.266 41.8578C141.947 41.7188 142.674 41.7797 143.449 42.0406C144.19 42.2898 144.778 42.6717 145.213 43.1863C145.653 43.7026 145.914 44.3235 145.997 45.0492C146.086 45.7716 145.974 46.5717 145.659 47.4493ZM139.484 45.3705C139.252 46.0177 139.137 46.6081 139.139 47.1419C139.142 47.6756 139.276 48.133 139.544 48.5142C139.811 48.8953 140.228 49.1815 140.796 49.3725C141.359 49.562 141.867 49.5874 142.32 49.4489C142.779 49.312 143.179 49.0348 143.523 48.6174C143.866 48.2 144.154 47.6677 144.386 47.0205C144.616 46.3783 144.728 45.7952 144.722 45.2713C144.718 44.7424 144.582 44.2899 144.313 43.9137C144.044 43.5374 143.623 43.2529 143.051 43.0602C142.207 42.776 141.488 42.8445 140.894 43.2656C140.306 43.6883 139.836 44.39 139.484 45.3705ZM158.619 48.7784C158.464 48.6715 158.311 48.5773 158.16 48.4959C157.802 48.3034 157.438 48.1959 157.067 48.1735C156.7 48.1536 156.34 48.1996 155.988 48.3116C155.639 48.4191 155.307 48.5687 154.993 48.7605L154.945 48.7346L155.606 47.2987L154.656 46.7878L150.399 54.2168L151.548 54.8351L153.832 50.8494C154.052 50.4653 154.309 50.1482 154.602 49.8981C154.898 49.6435 155.21 49.4598 155.539 49.347C155.87 49.2296 156.203 49.1838 156.536 49.2094C156.876 49.233 157.198 49.3263 157.501 49.4891C157.634 49.5607 157.771 49.6463 157.912 49.7458C158.053 49.8453 158.176 49.9442 158.282 50.0425L159.024 49.0764C158.912 48.9801 158.776 48.8808 158.619 48.7784ZM167.987 54.9775C168.564 55.4239 168.955 55.931 169.162 56.499C169.368 57.067 169.395 57.6605 169.242 58.2796C169.093 58.8947 168.771 59.5016 168.277 60.1003L167.766 60.7212L163.089 57.1008C162.462 57.8859 162.173 58.6297 162.221 59.3321C162.269 60.0345 162.642 60.6551 163.338 61.1939C163.766 61.5255 164.176 61.7807 164.569 61.9594C164.961 62.1381 165.396 62.2902 165.872 62.4157L165.147 63.2958C164.682 63.1799 164.253 63.0253 163.859 62.8322C163.469 62.6423 163.046 62.3703 162.589 62.0164C161.938 61.5127 161.476 60.9441 161.202 60.3106C160.935 59.6764 160.875 59.0045 161.022 58.2949C161.168 57.5854 161.541 56.8669 162.141 56.1396C162.727 55.4283 163.356 54.9075 164.026 54.5772C164.704 54.2461 165.381 54.1121 166.058 54.1751C166.739 54.2413 167.382 54.5088 167.987 54.9775ZM167.299 55.7877C166.751 55.3637 166.171 55.2005 165.557 55.2982C164.943 55.396 164.347 55.7344 163.769 56.3134L167.352 59.0873C167.672 58.6903 167.893 58.2953 168.015 57.9023C168.144 57.5084 168.153 57.1335 168.042 56.7774C167.934 56.4173 167.686 56.0874 167.299 55.7877ZM179.178 71.275L178.228 71.9344L180.532 75.0502L181.481 74.3909L179.178 71.275ZM184.77 89.9846L195.53 86.1545L196.001 87.3964L186.359 90.8283L188.156 95.5694L187.038 95.9676L184.77 89.9846ZM197.623 105.164C197.849 104.597 197.896 103.955 197.766 103.238C197.629 102.484 197.331 101.859 196.87 101.362C196.41 100.869 195.818 100.526 195.095 100.333C194.378 100.143 193.565 100.126 192.656 100.281C191.727 100.439 190.972 100.74 190.39 101.182C189.809 101.624 189.406 102.174 189.181 102.83C188.962 103.491 188.926 104.226 189.073 105.036C189.176 105.605 189.309 106.089 189.472 106.49C189.635 106.895 189.851 107.294 190.118 107.687L191.242 107.495C190.972 107.087 190.751 106.686 190.579 106.293C190.407 105.9 190.273 105.436 190.176 104.903C190.019 104.037 190.157 103.322 190.589 102.757C191.021 102.192 191.731 101.817 192.719 101.633L193.775 107.452L194.568 107.317C195.333 107.187 195.976 106.937 196.497 106.568C197.022 106.199 197.398 105.731 197.623 105.164ZM195.75 101.885C196.27 102.214 196.592 102.719 196.716 103.401C196.803 103.883 196.767 104.295 196.607 104.64C196.452 104.983 196.196 105.262 195.838 105.476C195.486 105.695 195.059 105.849 194.557 105.94L193.747 101.482C194.562 101.422 195.23 101.557 195.75 101.885ZM199.004 117.653C198.995 118.674 198.758 119.43 198.295 119.921C197.832 120.411 197.098 120.652 196.093 120.643L190.273 120.591L190.282 119.645L191.55 119.407L191.55 119.344C191.24 119.102 190.98 118.849 190.769 118.587C190.563 118.325 190.407 118.021 190.301 117.677C190.2 117.337 190.152 116.92 190.156 116.425C190.161 115.905 190.257 115.442 190.443 115.037C190.629 114.638 190.908 114.323 191.28 114.092C191.652 113.866 192.122 113.755 192.69 113.761C193.544 113.768 194.197 114.113 194.649 114.794C195.101 115.475 195.341 116.508 195.369 117.894L195.418 119.371L195.941 119.376C196.681 119.383 197.2 119.228 197.5 118.913C197.8 118.598 197.953 118.152 197.958 117.574C197.963 117.126 197.902 116.698 197.775 116.291C197.649 115.883 197.499 115.497 197.325 115.13L198.314 114.741C198.508 115.128 198.673 115.572 198.809 116.073C198.945 116.575 199.01 117.101 199.004 117.653ZM194.504 119.347L194.462 118.042C194.43 116.974 194.263 116.22 193.96 115.78C193.657 115.34 193.224 115.117 192.661 115.112C192.172 115.107 191.808 115.253 191.571 115.547C191.334 115.842 191.213 116.234 191.208 116.724C191.201 117.484 191.406 118.109 191.823 118.597C192.24 119.085 192.871 119.333 193.715 119.34L194.504 119.347ZM197.302 133.226C197.356 133.045 197.399 132.87 197.43 132.701C197.504 132.301 197.494 131.924 197.4 131.57C197.305 131.221 197.15 130.901 196.933 130.609C196.722 130.319 196.476 130.06 196.195 129.832L196.205 129.778L197.785 129.908L197.98 128.848L189.543 127.39L189.307 128.673L193.833 129.455C194.27 129.531 194.653 129.663 194.984 129.852C195.319 130.043 195.592 130.272 195.802 130.541C196.017 130.811 196.164 131.105 196.243 131.426C196.326 131.752 196.336 132.084 196.274 132.422C196.247 132.571 196.207 132.728 196.156 132.893C196.104 133.059 196.048 133.207 195.986 133.339L197.142 133.706C197.199 133.568 197.253 133.408 197.302 133.226ZM193.939 144.514C193.582 145.465 193.076 146.101 192.422 146.422C191.772 146.745 190.929 146.724 189.892 146.358L184.632 144.503L185.082 143.304L190.262 145.13C190.935 145.368 191.496 145.391 191.945 145.202C192.393 145.018 192.735 144.611 192.971 143.982C193.304 143.094 193.286 142.381 192.915 141.842C192.545 141.303 191.878 140.863 190.916 140.524L186.686 139.032L187.142 137.818L195.217 140.666L194.849 141.646L193.617 141.418L193.592 141.484C193.813 141.755 193.969 142.056 194.062 142.387C194.16 142.72 194.196 143.067 194.172 143.428C194.152 143.791 194.075 144.153 193.939 144.514ZM184.174 165.03L173.787 161.648L173.084 162.476L178.461 171.73L178.42 171.777C178.255 171.626 178.058 171.448 177.828 171.245C177.602 171.044 177.358 170.833 177.096 170.611C176.838 170.392 176.577 170.177 176.312 169.966L170.596 165.405L169.746 166.406L178.674 173.529L179.939 172.04L174.89 163.317L174.926 163.276L184.694 166.444L185.969 164.943L177.04 157.82L176.241 158.761L181.884 163.263C182.177 163.497 182.467 163.722 182.755 163.938C183.047 164.157 183.318 164.357 183.568 164.536C183.818 164.716 184.034 164.865 184.214 164.982L184.174 165.03ZM161.641 178.373C161.2 177.825 160.88 177.28 160.681 176.74C160.481 176.2 160.399 175.678 160.436 175.174C160.472 174.671 160.622 174.193 160.886 173.74C161.149 173.294 161.526 172.886 162.017 172.516C162.475 172.172 162.957 171.932 163.463 171.798C163.969 171.671 164.48 171.651 164.997 171.738C165.509 171.827 166.015 172.03 166.515 172.344C167.01 172.662 167.477 173.095 167.918 173.643C168.504 174.375 168.876 175.092 169.033 175.795C169.193 176.502 169.146 177.167 168.891 177.789C168.635 178.418 168.181 178.979 167.528 179.471C166.904 179.941 166.25 180.216 165.565 180.295C164.877 180.377 164.197 180.257 163.525 179.935C162.852 179.621 162.224 179.1 161.641 178.373ZM166.844 174.452C166.414 173.916 165.968 173.506 165.506 173.221C165.044 172.937 164.575 172.802 164.099 172.815C163.623 172.829 163.145 173.016 162.667 173.376C162.193 173.733 161.89 174.134 161.759 174.578C161.624 175.025 161.642 175.501 161.812 176.004C161.983 176.508 162.283 177.028 162.714 177.564C163.141 178.097 163.582 178.501 164.037 178.777C164.496 179.057 164.962 179.189 165.435 179.171C165.908 179.153 166.386 178.963 166.868 178.599C167.58 178.063 167.917 177.44 167.882 176.731C167.842 176.024 167.496 175.265 166.844 174.452ZM153.421 188.052C153.598 187.985 153.763 187.912 153.915 187.833C154.277 187.647 154.568 187.409 154.789 187.12C155.006 186.832 155.161 186.515 155.256 186.168C155.353 185.825 155.404 185.474 155.409 185.114L155.457 185.089L156.341 186.409L157.3 185.915L153.183 178.407L152.023 179.004L154.232 183.032C154.444 183.42 154.579 183.802 154.636 184.177C154.696 184.556 154.685 184.91 154.604 185.239C154.525 185.572 154.384 185.867 154.181 186.124C153.975 186.388 153.72 186.599 153.414 186.756C153.28 186.825 153.131 186.89 152.968 186.95C152.806 187.011 152.653 187.057 152.51 187.089L152.943 188.219C153.088 188.18 153.247 188.124 153.421 188.052ZM142.972 192.212C142.278 192.435 141.631 192.475 141.031 192.329C140.43 192.183 139.904 191.877 139.452 191.41C139.001 190.948 138.65 190.35 138.398 189.616L138.137 188.855L143.765 187.04C143.424 186.094 142.938 185.447 142.306 185.098C141.674 184.749 140.939 184.71 140.101 184.98C139.586 185.146 139.146 185.34 138.781 185.561C138.417 185.783 138.053 186.053 137.689 186.373L137.319 185.294C137.668 184.979 138.031 184.714 138.409 184.499C138.781 184.286 139.243 184.091 139.793 183.914C140.576 183.661 141.315 183.598 142.008 183.725C142.698 183.858 143.309 184.181 143.843 184.693C144.377 185.204 144.797 185.906 145.103 186.798C145.402 187.67 145.515 188.471 145.44 189.2C145.363 189.937 145.115 190.563 144.698 191.081C144.276 191.6 143.701 191.977 142.972 192.212ZM142.642 191.202C143.302 190.99 143.754 190.606 143.998 190.051C144.242 189.496 144.27 188.823 144.08 188.03L139.768 189.42C139.938 189.902 140.161 190.3 140.435 190.617C140.705 190.94 141.024 191.155 141.391 191.261C141.759 191.372 142.176 191.352 142.642 191.202ZM122.761 192.271L122.706 191.116L118.834 191.29L118.889 192.445L122.761 192.271Z" fill="url(#paint0_linear_856_994)"/>
<path d="M117.494 95.9287L117.494 138.382" stroke="url(#paint1_linear_856_994)" stroke-width="3" stroke-linecap="round" stroke-linejoin="round"/>
<path d="M134.369 121.014L117.494 138.381L100.619 121.014" stroke="url(#paint2_linear_856_994)" stroke-width="3" stroke-linecap="round" stroke-linejoin="round"/>
<rect x="7.5" y="7.5" width="219.005" height="218.998" rx="109.499" stroke="#1B202B" stroke-width="15"/>
<defs>
<linearGradient id="paint0_linear_856_994" x1="35" y1="35" x2="207.718" y2="44.7572" gradientUnits="userSpaceOnUse">
<stop stop-color="#ADFBDA"/>
<stop offset="0.197917" stop-color="#EBF38B"/>
<stop offset="0.40625" stop-color="#76D880"/>
<stop offset="0.609375" stop-color="#FDA399"/>
<stop offset="0.807292" stop-color="#35C3FF"/>
<stop offset="1" stop-color="#ADFBDA"/>
</linearGradient>
<linearGradient id="paint1_linear_856_994" x1="117.494" y1="95.9287" x2="101.562" y2="102.572" gradientUnits="userSpaceOnUse">
<stop stop-color="#ADFBDA"/>
<stop offset="0.197917" stop-color="#EBF38B"/>
<stop offset="0.40625" stop-color="#76D880"/>
<stop offset="1" stop-color="#ADFBDA"/>
</linearGradient>
<linearGradient id="paint2_linear_856_994" x1="134.369" y1="121.014" x2="133.836" y2="139.347" gradientUnits="userSpaceOnUse">
<stop stop-color="#ADFBDA"/>
<stop offset="0.197917" stop-color="#EBF38B"/>
<stop offset="0.40625" stop-color="#76D880"/>
<stop offset="1" stop-color="#ADFBDA"/>
</linearGradient>
</defs>
</svg>
