<svg width="68" height="23" viewBox="0 0 68 23" fill="none" xmlns="http://www.w3.org/2000/svg">
<path fill-rule="evenodd" clip-rule="evenodd" d="M17.2484 9.48423C17.2481 9.50069 17.2478 9.52113 17.2474 9.53409L17.2458 9.53409C17.2464 9.55344 17.2469 9.54831 17.2474 9.53409H17.2493C17.2493 9.43326 17.249 9.45024 17.2484 9.48421V9.48423ZM9.21738 17.8181L9.21743 17.8181V17.8197L9.21738 17.8197V17.8181ZM9.21738 17.8181C9.1986 17.8187 9.20355 17.8192 9.21743 17.8197L9.24233 17.8203L9.26702 17.8207L9.26767 17.8207H9.26769C9.30169 17.8213 9.31863 17.8216 9.21738 17.8216C6.85931 17.8216 4.73102 16.8285 3.18951 15.2229C1.64639 13.6156 0.695312 11.3974 0.695312 8.9513C0.695312 6.50524 1.64623 4.28894 3.18887 2.68349C4.73055 1.07887 6.85915 0.0869141 9.21738 0.0869141C10.3272 0.0869141 11.3889 0.306907 12.3639 0.706863C13.3723 1.12071 14.2894 1.7309 15.072 2.49294L13.4071 4.32715C12.8526 3.78709 12.1965 3.35223 11.4697 3.054C10.7737 2.76834 10.014 2.61137 9.21738 2.61137C7.52778 2.61137 6.00748 3.317 4.91071 4.45848C3.80962 5.6046 3.13094 7.19284 3.13094 8.9513C3.13094 10.7104 3.80978 12.3005 4.91151 13.4479C6.00844 14.5904 7.52842 15.2972 9.21738 15.2972C9.40535 15.2972 9.31231 15.2997 9.2581 15.3012H9.25809C9.22017 15.3022 9.20127 15.3027 9.31089 15.3015C10.9703 15.2831 12.3563 14.7555 13.3109 13.7872C14.0559 13.0314 14.557 11.9875 14.7405 10.6863H9.2844V8.1618H16.0309H17.2307L17.2438 9.41427C17.2444 9.48044 17.2451 9.51683 17.2457 9.53403H17.2444C17.2444 12.0998 16.4247 14.1507 15.0139 15.582C13.6038 17.0121 11.6342 17.7907 9.33004 17.8162C9.26797 17.8168 9.23382 17.8175 9.21738 17.818V17.8181ZM23.6637 8.70777C24.5382 8.70777 25.3291 9.08606 25.9007 9.69757C26.4731 10.3101 26.8272 11.1606 26.8272 12.1041C26.8272 13.0476 26.4731 13.8983 25.9007 14.5106C25.3291 15.1221 24.5382 15.5004 23.6637 15.5004C22.7891 15.5004 21.9982 15.1221 21.4266 14.5106C20.8542 13.8983 20.5001 13.0476 20.5001 12.1041C20.5001 11.1606 20.8542 10.3101 21.4266 9.69757C21.9982 9.08606 22.7891 8.70777 23.6637 8.70777ZM27.5731 8.10205C26.5717 7.07371 25.1894 6.43755 23.6637 6.43755C22.138 6.43755 20.7556 7.07371 19.7542 8.10205C18.7537 9.12956 18.1348 10.5448 18.1348 12.1041C18.1348 13.6634 18.7537 15.0786 19.7542 16.1061C20.7556 17.1346 22.138 17.7706 23.6637 17.7706C25.1894 17.7706 26.5717 17.1346 27.5731 16.1061C28.5738 15.0786 29.1926 13.6634 29.1926 12.1041C29.1926 10.5448 28.5738 9.12956 27.5731 8.10205ZM37.7919 9.69757C37.2203 9.08606 36.4295 8.70777 35.555 8.70777C34.6803 8.70777 33.8895 9.08606 33.3179 9.69757C32.7456 10.3101 32.3915 11.1606 32.3915 12.1041C32.3915 13.0476 32.7456 13.8983 33.3179 14.5106C33.8895 15.1221 34.6803 15.5004 35.555 15.5004C36.4295 15.5004 37.2203 15.1221 37.7919 14.5106C38.3643 13.8983 38.7184 13.0476 38.7184 12.1041C38.7184 11.1606 38.3643 10.3101 37.7919 9.69757ZM35.555 6.43755C37.0807 6.43755 38.4629 7.07371 39.4645 8.10205C40.465 9.12956 41.0838 10.5448 41.0838 12.1041C41.0838 13.6634 40.465 15.0786 39.4645 16.1061C38.4629 17.1346 37.0807 17.7706 35.555 17.7706C34.0292 17.7706 32.647 17.1346 31.6455 16.1061C30.6449 15.0786 30.0259 13.6634 30.0259 12.1041C30.0259 10.5448 30.6449 9.12956 31.6455 8.10205C32.647 7.07371 34.0292 6.43755 35.555 6.43755ZM47.3516 8.70777C48.1846 8.70777 48.938 9.08606 49.4824 9.69757C50.0277 10.3101 50.3649 11.1606 50.3649 12.1041C50.3649 13.0476 50.0277 13.8983 49.4824 14.5106C48.938 15.1221 48.1846 15.5628 47.3516 15.5628C45.5784 15.5628 44.3383 14.0108 44.3383 12.1041C44.3383 11.1606 44.6755 10.3101 45.2208 9.69757C45.7652 9.08606 46.5184 8.70777 47.3516 8.70777ZM50.1361 7.74344C49.3248 6.92798 48.422 6.43755 46.9335 6.43755C44.4407 6.43755 41.9312 8.95456 41.9312 12.1041C41.9312 13.6634 42.4912 15.0786 43.3965 16.1061C44.3025 17.1347 45.7845 17.7706 47.1649 17.7706C48.3783 17.7706 49.3123 17.2792 50.1361 16.4619V17.7025C50.1361 19.5405 48.6801 20.656 47.5195 20.656C45.8812 20.656 45.0053 19.9625 44.4184 18.6164L42.3453 19.5848C42.8394 20.7181 43.5596 21.5226 44.4037 22.0612C45.3526 22.6666 46.4382 22.8826 47.5195 22.8826C48.7035 22.8826 49.8996 22.3647 50.7898 21.5441C51.7141 20.6922 52.3966 19.0592 52.3966 17.5535V6.75712H50.1361V7.74344ZM53.8581 17.4459H56.1923V0.816485H53.8581V17.4459ZM65.3702 13.9988C64.143 16.1185 60.9054 16.0935 59.9865 13.8245C61.4008 13.2341 62.8113 12.6367 64.2216 12.0393C65.2704 11.5951 66.319 11.1509 67.3692 10.7097C66.5546 8.53338 65.4399 7.28124 64.0667 6.76434C61.9525 5.9684 59.9029 6.71042 58.5741 8.16982C56.9454 9.95887 56.4425 13.7327 58.7929 16.1921C59.7548 17.1986 61.042 17.8199 62.6414 17.8181C64.4376 17.8078 66.0867 17.0026 67.2187 15.283L65.3702 13.9988ZM64.5862 9.83117L59.615 11.9064C59.5419 10.815 60.1078 9.84937 60.7539 9.28367C62.434 8.09555 63.7087 8.66174 64.5862 9.83117Z" fill="#969696"/>
</svg>
