<svg width="83" height="22" viewBox="0 0 83 22" fill="none" xmlns="http://www.w3.org/2000/svg">
<path fill-rule="evenodd" clip-rule="evenodd" d="M80.9751 0.149902H63.2253C62.3771 0.149902 61.6879 0.846761 61.6879 1.70554V20.1817C61.6879 21.0414 62.3771 21.7392 63.2253 21.7392H80.9751C81.8247 21.7392 82.5168 21.0414 82.5168 20.1817V1.70554C82.5168 0.846761 81.8247 0.149902 80.9751 0.149902ZM66.3215 3.12223C67.3091 3.12223 68.1118 3.95417 68.1118 4.97832C68.1118 6.00336 67.3091 6.83531 66.3215 6.83531C65.3313 6.83531 64.5299 6.00336 64.5299 4.97832C64.5299 3.95417 65.3313 3.12223 66.3215 3.12223ZM67.8654 18.5468H64.776V8.24372H67.8654V18.5468ZM69.8032 8.24373H72.7662V9.65154H72.8076C73.2201 8.84149 74.2278 7.98766 75.7307 7.98766C78.859 7.98766 79.4365 10.1217 79.4365 12.8955V18.5468H76.3494V13.5364C76.3494 12.3417 76.3282 10.8048 74.744 10.8048C73.1367 10.8048 72.8899 12.1063 72.8899 13.4501V18.5468H69.8032V8.24373ZM12.4436 3.11761C13.4325 3.11761 14.2351 3.94955 14.2351 4.9737C14.2351 5.99964 13.4325 6.82919 12.4436 6.82919C11.4558 6.82919 10.6532 5.99964 10.6532 4.9737C10.6532 3.94955 11.4558 3.11761 12.4436 3.11761ZM10.8994 18.5422H13.9878V8.2391H10.8994V18.5422ZM0.318359 3.3429V18.5463H9.48025V15.4733H3.53157V3.3429H0.318359ZM29.9841 3.34184H26.897V18.5463H29.9841V13.4532H30.0243L33.3009 18.5463H37.1816L33.216 13.0049L37.2662 8.23454H33.4814L29.9841 12.4284V3.34184ZM15.6958 8.24058H18.6602V9.64899H18.7016C19.1129 8.83804 20.122 7.98481 21.6246 7.98481C24.7544 7.98481 25.3306 10.1186 25.3306 12.8921V18.5422H22.2424V13.5327C22.2424 12.3373 22.2211 10.8015 20.6357 10.8015C19.0303 10.8015 18.784 12.1034 18.784 13.4472V18.5422H15.6958V8.24058ZM42.1598 18.8081C43.7667 18.8081 45.3921 18.0605 46.3805 16.7586L44.2191 15.1154C43.7042 15.8409 43.0254 16.3746 42.0162 16.3746C40.8219 16.3746 39.9352 15.5851 39.6901 14.3686H46.8543V13.3656C46.8543 10.0585 45.0444 7.92476 42.1598 7.92476C39.0725 7.92476 36.6018 10.0585 36.6018 13.3656C36.6018 16.6731 39.0725 18.8081 42.1598 18.8081ZM41.8711 10.2294C42.984 10.2294 43.7868 11.1258 43.7667 12.1929H39.6901C39.7715 11.1897 40.5132 10.2294 41.8711 10.2294ZM58.5996 18.5407H55.7579V17.1744H55.7177C55.2427 17.9211 54.0497 18.7966 52.6493 18.7966C49.6839 18.7966 47.7285 16.5782 47.7285 13.4408C47.7285 10.5597 49.4577 7.91362 52.2986 7.91362C53.5762 7.91362 54.7699 8.27614 55.47 9.27915H55.5102V3.34176H58.5996V18.5407ZM53.286 10.7306C51.7431 10.7306 50.8169 11.7984 50.8169 13.3549C50.8169 14.914 51.7431 15.9795 53.286 15.9795C54.8311 15.9795 55.758 14.914 55.758 13.3549C55.758 11.7984 54.8311 10.7306 53.286 10.7306Z" fill="#969696"/>
</svg>
