<svg width="71" height="22" viewBox="0 0 71 22" fill="none" xmlns="http://www.w3.org/2000/svg">
<path fill-rule="evenodd" clip-rule="evenodd" d="M35.1423 1.77088H32.5875V5.03858H31.211V7.39653H32.5875V15.6501H35.1423V7.39653H36.5396V5.03858H35.1423V1.77088ZM28.8165 0.260742C27.8782 0.260742 27.1397 1.02618 27.1397 2.01914C27.1397 2.99093 27.8782 3.75679 28.8165 3.75679C29.7941 3.75679 30.533 2.99093 30.533 2.01914C30.533 1.02618 29.7941 0.260742 28.8165 0.260742V0.260742ZM69.4263 4.79114C68.9881 4.79114 68.6482 4.43934 68.6482 3.98389C68.6482 3.5495 68.9881 3.1977 69.4263 3.1977C69.8461 3.1977 70.1847 3.5495 70.1847 3.98389C70.1847 4.43934 69.8461 4.79114 69.4263 4.79114V4.79114ZM69.4263 3.07424C68.928 3.07424 68.5291 3.48778 68.5291 3.98389C68.5291 4.50107 68.928 4.91502 69.4263 4.91502C69.9056 4.91502 70.305 4.50107 70.305 3.98389C70.305 3.48778 69.9056 3.07424 69.4263 3.07424V3.07424ZM39.5122 9.23823C39.8516 7.83174 40.8895 7.04555 42.2265 7.04555C43.5639 7.04555 44.561 7.81058 44.8808 9.23823H39.5122ZM42.286 4.70783C39.2135 4.70783 36.8782 7.1492 36.8782 10.3966C36.8782 13.6024 39.014 15.9606 42.3261 15.9606C44.162 15.9606 45.7988 15.2576 46.9962 13.9332L45.2798 12.1756C44.4415 13.0032 43.5435 13.6024 42.3859 13.6024C40.9895 13.6024 39.9316 12.7748 39.5725 11.3895H47.5343V10.7484C47.5343 7.12803 45.3798 4.70783 42.286 4.70783V4.70783ZM64.8959 4.70783C63.6389 4.70783 62.5616 5.20385 61.8031 6.0526V0.550817H59.2483V15.6501H61.8031V9.87928C61.8031 8.34892 62.7414 7.2934 64.2974 7.2934C65.7544 7.2934 66.5528 8.22411 66.5528 9.87928V15.6501H69.1072V9.40361C69.1072 6.46665 67.3304 4.70783 64.8959 4.70783V4.70783ZM69.2266 3.96356V3.63198H69.4263C69.5865 3.63198 69.6466 3.69465 69.6466 3.79819C69.6466 3.90141 69.5865 3.96356 69.4263 3.96356H69.2266ZM69.7656 3.79819C69.7656 3.59142 69.6258 3.50811 69.4263 3.50811H69.1072V4.45957H69.2266V4.08743H69.4263L69.6466 4.45957H69.7852L69.5466 4.0672C69.6865 4.04562 69.7656 3.96356 69.7656 3.79819V3.79819ZM53.8804 7.27307C54.958 7.27307 55.8364 7.85197 56.5149 8.65933L58.2907 6.83879C57.2933 5.53542 55.7163 4.70783 53.9209 4.70783C50.828 4.70783 48.3927 7.1492 48.3927 10.3339C48.3927 13.5195 50.828 15.9606 53.9209 15.9606C55.7163 15.9606 57.2933 15.1328 58.2907 13.8308L56.5149 12.0102C55.8563 12.7961 54.958 13.3957 53.8609 13.3957C52.224 13.3957 50.9667 12.0721 50.9667 10.3339C50.9667 8.59625 52.224 7.27307 53.8804 7.27307V7.27307ZM27.5591 15.6501H30.114V5.03858H27.5591V15.6501ZM9.08001 13.3957C7.44325 13.3957 6.14579 12.0517 6.14579 10.3137C6.14579 8.59625 7.44325 7.27307 9.08001 7.27307C10.7361 7.27307 12.0334 8.59625 12.0334 10.3339C12.0334 12.0721 10.7361 13.3957 9.08001 13.3957V13.3957ZM9.08001 4.70783C5.98635 4.70783 3.55187 7.1492 3.55187 10.3339C3.55187 13.5195 5.98635 15.9606 9.08001 15.9606C12.173 15.9606 14.6073 13.5195 14.6073 10.3339C14.6073 7.1492 12.173 4.70783 9.08001 4.70783V4.70783ZM0 15.6501H2.55478V0.550817H0V15.6501ZM21.0135 13.3957C19.3775 13.3957 18.0801 12.0517 18.0801 10.3137C18.0801 8.59625 19.3775 7.27307 21.0135 7.27307C22.6699 7.27307 23.9673 8.59625 23.9673 10.3339C23.9673 12.0721 22.6699 13.3957 21.0135 13.3957V13.3957ZM26.4417 7.1492V5.03858H22.849C22.2709 4.83264 21.6524 4.70783 21.0135 4.70783C17.9206 4.70783 15.4862 7.1492 15.4862 10.3339C15.4862 13.5195 17.9206 15.9606 21.0135 15.9606C24.1064 15.9606 26.5417 13.5195 26.5417 10.3339C26.5417 9.25846 26.2617 8.20388 25.7032 7.41769L26.4417 7.1492ZM21.0135 19.4149C19.3775 19.4149 18.0801 18.0914 18.0801 16.3745H15.4862C15.4862 19.5601 17.9206 22.0001 21.0135 22.0001C24.1064 22.0001 26.5417 19.5601 26.5417 16.3745H23.9469C23.9469 18.0914 22.6494 19.4149 21.0135 19.4149V19.4149Z" fill="#969696"/>
</svg>
