<svg width="75" height="15" viewBox="0 0 75 15" fill="none" xmlns="http://www.w3.org/2000/svg">
<path fill-rule="evenodd" clip-rule="evenodd" d="M25.7638 0.631787H21.771V6.02235H17.6127V0.631787H13.6184V14.195H17.6127V8.85924H21.771V14.195H25.7638V0.631787ZM39.6602 11.4705V0.631787H35.6657V14.195H42.888L43.4889 11.4705H39.6602ZM28.7185 14.195H32.712V0.631787H28.7185V14.195ZM44.912 14.195H48.9048V0.631787H44.912V14.195ZM68.5986 4.09241C68.5986 3.35539 69.3106 3.01392 70.4588 3.01392C71.7169 3.01392 73.0854 3.29805 74.0144 3.69686L73.6874 0.745067C72.6476 0.518508 71.7169 0.347656 70.0216 0.347656C66.7938 0.347656 64.6059 1.66762 64.6059 4.43481C64.6059 9.20001 70.844 8.23643 70.844 10.4493C70.844 11.2999 70.2402 11.7528 68.7626 11.7528C67.452 11.7528 65.4255 11.2999 64.2234 10.6759L64.6614 13.7986C65.8642 14.2517 67.5051 14.4782 68.8188 14.4782C72.1552 14.4782 74.8912 13.3429 74.8912 9.93703C74.8912 5.39862 68.5986 6.24985 68.5986 4.09241ZM57.3316 10.96C61.0493 10.96 63.4021 8.97252 63.4021 5.5119C63.4021 1.70957 60.8863 0.347656 56.7824 0.347656C55.1967 0.347656 53.2808 0.460936 51.9131 0.631787V14.195H55.9086V10.96H57.3316ZM59.4622 5.56854C59.4622 7.32763 58.6437 8.5194 56.5641 8.5194H55.9086V2.91626C56.1404 2.90227 56.359 2.90227 56.5641 2.90227C58.5328 2.90227 59.4622 3.86608 59.4622 5.56854ZM5.96067 10.96C9.68023 10.96 12.0321 8.97252 12.0321 5.5119C12.0321 1.70957 9.5154 0.347656 5.41356 0.347656C3.82644 0.347656 1.91168 0.460936 0.544922 0.631787V14.195H4.53747V10.96H5.96067ZM8.0949 5.56854C8.0949 7.32763 7.27368 8.5194 5.19499 8.5194H4.53747V2.91626C4.77134 2.90227 4.98991 2.90227 5.19499 2.90227C7.16282 2.90227 8.0949 3.86608 8.0949 5.56854Z" fill="#969696"/>
</svg>
